<svg width="512" height="512" viewBox="0 0 512 512" xmlns="http://www.w3.org/2000/svg">
  <!-- Cosmic gradient background -->
  <defs>
    <linearGradient id="cosmicGrad" x1="0%" y1="0%" x2="100%" y2="100%">
      <stop offset="0%" style="stop-color:#6b5b95;stop-opacity:1" />
      <stop offset="30%" style="stop-color:#b8a5d6;stop-opacity:1" />
      <stop offset="50%" style="stop-color:#e91e8c;stop-opacity:1" />
      <stop offset="70%" style="stop-color:#c8b3e6;stop-opacity:1" />
      <stop offset="100%" style="stop-color:#4dd0e1;stop-opacity:1" />
    </linearGradient>
  </defs>
  
  <!-- Background -->
  <rect width="512" height="512" fill="url(#cosmicGrad)" rx="96"/>
  
  <!-- Stars -->
  <circle cx="100" cy="100" r="3" fill="white" opacity="0.8"/>
  <circle cx="400" cy="80" r="2" fill="white" opacity="0.9"/>
  <circle cx="450" cy="200" r="3" fill="white" opacity="0.7"/>
  <circle cx="80" cy="400" r="2" fill="white" opacity="0.8"/>
  <circle cx="300" cy="450" r="3" fill="white" opacity="0.9"/>
  
  <!-- Main icon - Paint brush -->
  <g transform="translate(156, 106)">
    <!-- Brush handle -->
    <rect x="80" y="40" width="40" height="200" fill="#FFD700" rx="8"/>
    
    <!-- Brush ferrule -->
    <rect x="70" y="220" width="60" height="30" fill="#C0C0C0"/>
    
    <!-- Brush bristles -->
    <path d="M 70 250 L 50 300 L 70 300 L 80 250 Z" fill="#FF1493"/>
    <path d="M 80 250 L 70 300 L 90 300 L 100 250 Z" fill="#00FF00"/>
    <path d="M 100 250 L 90 300 L 110 300 L 120 250 Z" fill="#9400D3"/>
    <path d="M 120 250 L 110 300 L 130 300 L 130 250 Z" fill="#FFD700"/>
    
    <!-- Sparkles -->
    <circle cx="40" cy="60" r="8" fill="#FFD700" opacity="0.9"/>
    <circle cx="160" cy="100" r="6" fill="#FF1493" opacity="0.8"/>
    <circle cx="50" cy="180" r="7" fill="#4dd0e1" opacity="0.9"/>
  </g>
</svg>
